<svg width="184" height="127" viewBox="0 0 184 127" fill="none" xmlns="http://www.w3.org/2000/svg">
<path d="M16.5161 31.8598C12.2171 35.2712 10.0862 39.1133 10.0896 44.6273C10.102 61.8219 10.0722 79.0164 9.99999 96.211C9.99887 96.4778 9.98139 97.0818 9.94757 98.0231C9.90529 99.1428 9.50617 101.483 11.4257 101.25C15.3932 100.771 19.2846 101.428 23.2554 101.941C30.6882 102.9 37.9568 100.11 42.1848 93.8027C43.739 91.4839 45.1646 88.6805 46.3704 86.5846C48.313 83.2058 50.9338 80.4744 54.2327 78.3904C59.0018 75.3776 64.2157 74.1982 69.8744 74.8523C70.3231 74.9041 71.2719 75.0313 72.7207 75.234C81.0987 76.401 87.9429 75.0482 93.3344 68.1173C94.8818 66.1278 96.2585 63.3666 97.444 61.1255C101.878 52.7523 110.126 48.0861 119.566 48.3056C122.852 48.3816 126.057 49.2226 129.334 49.4C131.855 49.5362 134.294 49.0825 136.649 48.0388C136.701 48.0158 136.744 47.9784 136.769 47.9324C136.893 47.7072 136.952 47.4359 136.946 47.1184C136.912 44.9871 137.098 42.782 137.505 40.5032C138.151 36.8773 140.317 34.2765 143.283 32.1283C151.851 25.9235 160.41 19.7087 168.962 13.4836C169.351 13.201 169.474 12.8514 169.331 12.4349C169.322 12.4104 169.308 12.3877 169.289 12.3682C169.27 12.3487 169.247 12.3329 169.221 12.3217C168.217 11.8792 167.295 11.6518 166.454 11.6394C162.905 11.5831 155.552 11.5499 144.394 11.5398C124.229 11.5206 104.063 11.5173 83.8976 11.5297C83.1045 11.5313 82.1693 11.4418 81.3034 11.4401C72.5329 11.4379 63.7625 11.4401 54.9921 11.4469C49.5262 11.4503 43.9791 11.604 39.1018 14.4632C38.458 14.8403 37.5385 15.49 36.3434 16.4121C27.8842 22.9366 21.2751 28.0858 16.5161 31.8598Z" stroke="#8C8457" stroke-width="2"/>
<path d="M156.101 53.3653C156.126 53.3696 156.152 53.3648 156.174 53.3518C156.196 53.3388 156.213 53.3185 156.221 53.2944C159.849 42.7527 163.467 32.2133 167.075 21.6761C167.337 20.9077 166.713 20.9516 166.297 21.2523C158.738 26.7151 151.187 32.188 143.642 37.6711C143.087 38.0747 143.163 38.2368 143.566 38.7249C147.565 43.5707 151.57 48.4115 155.582 53.2471C155.603 53.2719 155.776 53.3113 156.101 53.3653Z" stroke="#706848" stroke-width="2"/>
<path d="M170.259 80.2329C170.501 80.3005 170.621 80.1941 170.621 79.9138C170.616 62.3105 170.64 44.7078 170.694 27.1057C170.695 26.7578 170.589 26.6469 170.376 26.773C170.334 26.7981 170.299 26.8432 170.28 26.8997C167.095 35.9541 163.967 45.0276 160.897 54.1203C160.218 56.1288 159.861 57.1962 159.825 57.3223C158.864 60.678 158.991 64.1654 159.272 67.7137C159.329 68.4382 159.17 68.7928 159.749 69.3923C163.147 72.9254 166.56 76.4843 169.987 80.0691C170.061 80.1465 170.155 80.2031 170.259 80.2329Z" stroke="#706848" stroke-width="2"/>
<path d="M142.264 44.6662C142.026 44.4928 141.906 44.553 141.905 44.8469C141.861 61.957 141.841 79.0665 141.846 96.1755C141.848 98.5973 141.854 101.017 141.793 103.444C141.793 103.472 141.799 103.5 141.81 103.523C141.822 103.546 141.839 103.565 141.859 103.578C142.023 103.676 142.164 103.561 142.225 103.395C145.503 94.4929 148.735 85.5736 151.919 76.6374C152.609 74.6986 153.354 72.8527 154.109 70.9714C154.295 70.507 154.312 70.024 154.347 69.5359C154.6 66.1605 154.635 62.8307 154.454 59.5465C154.443 59.3686 154.381 59.2104 154.268 59.0719C150.416 54.4074 146.589 49.7738 142.786 45.1711C142.613 44.9606 142.438 44.7923 142.264 44.6662Z" stroke="#706848" stroke-width="2"/>
<path d="M10.1893 106.319C10.0044 106.302 9.90804 106.384 9.90015 106.565" stroke="#706848" stroke-width="2"/>
<path d="M9.90027 106.565C9.7785 108.924 9.73791 113.057 12.5639 114.082" stroke="#8B8568" stroke-width="2"/>
<path d="M12.564 114.082C12.4208 114.505 12.6125 114.754 13.139 114.829C14.8978 115.075 16.5061 115.183 18.4155 115.182C56.0047 115.17 93.5939 115.164 131.183 115.163C132.544 115.163 134.077 114.908 135.783 114.398C136.793 114.097 137.544 113.684 137.698 112.633C137.956 110.86 137.936 108.472 137.973 106.952C138.061 103.449 137.934 100.131 137.999 96.4322C138.027 94.8244 138.017 89.7033 137.968 81.0689C137.966 80.5791 137.895 80.1367 137.246 80.4305" stroke="#0C0909" stroke-width="2"/>
<path d="M137.246 80.4305C137.249 71.6903 137.215 62.9506 137.144 54.2115C137.141 53.8805 137.111 53.595 137.055 53.3552C137.05 53.3319 137.036 53.3112 137.017 53.2967C136.998 53.2822 136.974 53.2748 136.95 53.2758C136.588 53.2882 136.061 53.3732 135.369 53.5309C132.38 54.2098 129.241 54.3364 125.952 53.9109C122.533 53.4684 119.363 52.8604 115.885 53.2505C115.249 53.3214 114.671 53.4284 114.153 53.5714C113.985 53.6164 113.83 53.635 113.688 53.6271C113.677 53.6268 113.657 53.6329 113.631 53.6445C113.605 53.6562 113.574 53.673 113.541 53.693C113.396 53.7831 113.233 53.8242 113.052 53.8163C113.024 53.8152 112.969 53.8281 112.888 53.8551L111.968 54.1625C111.872 54.194 111.82 54.2143 111.812 54.2233C111.718 54.3229 111.594 54.2942 111.535 54.3179C107.388 56.0101 104.156 58.7713 101.839 62.6016C100.746 64.4097 99.6826 66.2359 98.6498 68.0801C96.8775 71.245 94.9089 73.8238 91.9223 76.0041C88.5636 78.4563 84.8323 79.9109 80.7284 80.3681C78.513 80.6146 75.8917 80.591 73.6948 80.1637C70.1636 79.4797 66.3061 79.1893 62.8392 79.8563C57.3209 80.9186 52.5433 84.7404 49.8475 89.5975C48.5228 91.9844 47.4049 93.9491 46.4939 95.4915C43.6409 100.317 39.3656 103.76 34.0469 105.63C34.0061 105.644 33.9678 105.654 33.9375 105.661C33.9071 105.667 33.8862 105.669 33.8778 105.665C33.774 105.622 33.6968 105.653 33.6461 105.758C33.6373 105.776 33.6174 105.789 33.5898 105.796C33.5621 105.803 33.5283 105.803 33.4939 105.797C33.3744 105.773 33.2774 105.798 33.203 105.871C33.1729 105.901 33.1435 105.926 33.1185 105.945C33.0935 105.963 33.074 105.973 33.0626 105.974L32.6821 105.976C32.633 105.976 32.5784 105.997 32.5282 106.037C32.3771 106.155 32.2024 106.187 32.0039 106.133C31.9846 106.127 31.9612 106.13 31.9364 106.139C31.9116 106.149 31.8864 106.166 31.8636 106.189C31.6928 106.357 31.5 106.298 31.3292 106.336C28.8307 106.856 26.3092 106.99 23.7645 106.739C22.9088 106.655 22.0525 106.569 21.1956 106.481C20.8084 106.442 20.2942 106.263 19.7852 106.314C19.7335 106.318 19.6802 106.305 19.633 106.276C19.332 106.089 18.7113 106.163 18.3714 106.109C17.8945 106.034 17.6509 105.995 17.6408 105.994C15.1091 105.748 12.6569 105.739 10.1895 106.319" stroke="#8B8568" stroke-width="2"/>
<path d="M137.246 80.4305C137.261 80.6079 137.197 80.7852 137.197 80.9372C137.198 91.1951 137.197 101.453 137.195 111.711C137.195 112.432 137.018 113.189 136.355 113.454C134.936 114.02 133.196 114.207 131.476 114.207C118.379 114.207 105.282 114.208 92.1846 114.209C91.7127 114.209 91.1614 114.292 90.6473 114.292C81.7043 114.292 72.7614 114.292 63.8184 114.292C63.7085 114.292 63.5597 114.376 63.4616 114.376C47.117 114.376 30.7723 114.376 14.4276 114.376C13.7934 114.376 13.2117 114.173 12.564 114.082" stroke="#7F7C5F" stroke-width="2"/>
<path d="M9.90015 106.565C10.0433 106.534 10.1397 106.451 10.1893 106.319" stroke="#E3DB9E" stroke-width="2"/>
<path d="M158.218 74.6767C157.979 74.4785 157.789 74.518 157.647 74.7949C157.554 74.9762 157.453 75.2194 157.342 75.5245C153.603 85.8365 149.874 96.1524 146.153 106.472C145.72 107.676 146.595 106.991 146.859 106.771C152.586 102.017 158.263 97.2017 163.889 92.3267C165.894 90.5872 167.345 89.0267 168.675 86.9528C169.046 86.373 169.013 85.8568 168.578 85.4041C165.389 82.085 162.206 78.7614 159.03 75.4333C158.774 75.1653 158.503 74.9131 158.218 74.6767Z" stroke="#706848" stroke-width="2"/>
<path d="M130.845 39.6943C130.845 39.0542 130.59 38.4404 130.137 37.9878C129.684 37.5352 129.069 37.2809 128.428 37.2809H22.0261C21.3851 37.2809 20.7704 37.5352 20.3172 37.9878C19.864 38.4404 19.6094 39.0542 19.6094 39.6943V39.8497C19.6094 40.4897 19.864 41.1036 20.3172 41.5561C20.7704 42.0087 21.3851 42.263 22.0261 42.263H128.428C129.069 42.263 129.684 42.0087 130.137 41.5561C130.59 41.1036 130.845 40.4897 130.845 39.8497V39.6943Z" stroke="#8C8457" stroke-width="2"/>
<path d="M177.81 83.234C176.938 88.4795 174.252 93.1997 170.149 96.7463C164.865 101.315 159.551 105.85 154.208 110.35C151.105 112.964 148.029 115.551 144.929 117.537C140.109 120.625 134.846 121.942 129.159 121.873C127.971 121.858 127.376 121.851 127.371 121.851C86.4265 121.846 62.2343 121.846 54.7942 121.849C54.7717 121.849 54.7525 121.846 54.7367 121.841C54.6826 121.818 54.6527 121.807 54.6471 121.807C41.138 121.807 27.6294 121.807 14.1214 121.807C13.1507 121.807 12.0565 121.615 10.8388 121.233C6.57707 119.893 3.57354 116.524 2.83788 112.135C2.72401 111.449 2.66651 110.4 2.66538 108.987C2.662 87.5197 2.662 66.0524 2.66538 44.5851C2.66651 43.0167 2.70033 41.892 2.76685 41.2108C3.56847 33.1112 8.84325 28.4078 14.8452 23.5997C20.2784 19.247 25.7635 14.9608 31.3004 10.7409C34.6895 8.15535 38.2393 6.10511 42.3201 5.14923C46.3197 4.21193 50.3312 3.97212 54.4238 3.96874C91.5564 3.93834 128.688 3.92483 165.82 3.92821C172.334 3.9299 177.178 7.6639 177.998 14.2706C178.275 16.5055 178.389 18.6768 178.34 20.7844C178.041 33.6195 178.024 46.4546 178.289 59.2897C178.429 66.1379 178.433 73.0267 178.115 79.8715C178.048 81.2946 177.947 82.4155 177.81 83.234ZM16.5161 31.8598C12.2171 35.2712 10.0863 39.1133 10.0896 44.6273C10.102 61.8219 10.0722 79.0164 10 96.2109C9.99888 96.4778 9.98141 97.0818 9.94759 98.023C9.90531 99.1427 9.50619 101.483 11.4257 101.25C15.3932 100.771 19.2846 101.428 23.2555 101.941C30.6882 102.9 37.9569 100.11 42.1848 93.8027C43.739 91.4839 45.1646 88.6805 46.3705 86.5846C48.3131 83.2058 50.9338 80.4744 54.2327 78.3904C59.0019 75.3775 64.2158 74.1982 69.8744 74.8523C70.3232 74.9041 71.2719 75.0313 72.7207 75.234C81.0988 76.401 87.943 75.0482 93.3344 68.1173C94.8819 66.1278 96.2585 63.3666 97.444 61.1255C101.878 52.7523 110.126 48.086 119.566 48.3056C122.852 48.3816 126.057 49.2226 129.335 49.4C131.855 49.5362 134.294 49.0825 136.649 48.0388C136.701 48.0158 136.744 47.9784 136.769 47.9324C136.893 47.7072 136.952 47.4358 136.947 47.1183C136.912 44.987 137.098 42.782 137.505 40.5032C138.151 36.8773 140.317 34.2765 143.283 32.1283C151.851 25.9235 160.41 19.7086 168.962 13.4836C169.351 13.201 169.474 12.8514 169.331 12.4348C169.322 12.4104 169.308 12.3877 169.289 12.3682C169.27 12.3487 169.247 12.3329 169.221 12.3217C168.217 11.8792 167.295 11.6518 166.454 11.6394C162.905 11.5831 155.552 11.5499 144.394 11.5398C124.229 11.5206 104.063 11.5172 83.8977 11.5296C83.1045 11.5313 82.1693 11.4418 81.3034 11.4401C72.533 11.4379 63.7625 11.4401 54.9921 11.4469C49.5262 11.4503 43.9791 11.6039 39.1018 14.4631C38.458 14.8403 37.5386 15.4899 36.3435 16.412C27.8842 22.9366 21.2751 28.0858 16.5161 31.8598ZM156.101 53.3653C156.126 53.3696 156.152 53.3648 156.174 53.3518C156.196 53.3388 156.213 53.3184 156.221 53.2944C159.849 42.7527 163.467 32.2133 167.075 21.6761C167.337 20.9077 166.713 20.9516 166.297 21.2522C158.738 26.715 151.187 32.188 143.642 37.671C143.087 38.0747 143.163 38.2368 143.566 38.7249C147.565 43.5707 151.57 48.4114 155.582 53.2471C155.603 53.2719 155.776 53.3113 156.101 53.3653ZM170.259 80.2329C170.501 80.3005 170.621 80.1941 170.621 79.9137C170.616 62.3105 170.64 44.7078 170.694 27.1057C170.695 26.7578 170.589 26.6469 170.376 26.773C170.334 26.7981 170.299 26.8431 170.28 26.8997C167.095 35.9541 163.967 45.0276 160.897 54.1202C160.218 56.1288 159.861 57.1962 159.825 57.3223C158.864 60.678 158.991 64.1654 159.272 67.7136C159.329 68.4381 159.17 68.7928 159.749 69.3923C163.147 72.9254 166.56 76.4843 169.987 80.0691C170.061 80.1465 170.155 80.203 170.259 80.2329ZM142.264 44.6662C142.026 44.4928 141.906 44.553 141.905 44.8469C141.861 61.957 141.841 79.0665 141.846 96.1755C141.848 98.5972 141.854 101.017 141.793 103.444C141.793 103.472 141.799 103.499 141.81 103.523C141.822 103.546 141.839 103.565 141.859 103.578C142.023 103.676 142.164 103.561 142.225 103.395C145.503 94.4928 148.735 85.5736 151.918 76.6374C152.608 74.6986 153.354 72.8527 154.109 70.9714C154.295 70.507 154.311 70.0239 154.347 69.5359C154.6 66.1605 154.635 62.8307 154.454 59.5464C154.443 59.3686 154.381 59.2104 154.268 59.0719C150.416 54.4073 146.589 49.7737 142.786 45.1711C142.612 44.9606 142.438 44.7923 142.264 44.6662ZM10.1894 106.319C10.0045 106.302 9.90812 106.384 9.90023 106.565C9.77847 108.924 9.73788 113.057 12.5638 114.082C12.4206 114.505 12.6123 114.754 13.1388 114.829C14.8977 115.075 16.506 115.183 18.4153 115.182C56.0045 115.17 93.5937 115.164 131.183 115.163C132.544 115.163 134.077 114.908 135.783 114.398C136.793 114.097 137.543 113.684 137.697 112.633C137.956 110.86 137.936 108.472 137.973 106.952C138.061 103.449 137.934 100.131 137.998 96.4322C138.027 94.8244 138.016 89.7033 137.968 81.0689C137.966 80.5791 137.895 80.1367 137.246 80.4305C137.249 71.6903 137.215 62.9506 137.144 54.2114C137.141 53.8804 137.111 53.595 137.055 53.3552C137.05 53.3319 137.036 53.3112 137.017 53.2967C136.998 53.2822 136.974 53.2748 136.95 53.2758C136.588 53.2882 136.061 53.3732 135.369 53.5308C132.38 54.2097 129.241 54.3364 125.952 53.9108C122.533 53.4683 119.363 52.8604 115.885 53.2505C115.249 53.3214 114.671 53.4284 114.153 53.5714C113.985 53.6164 113.83 53.635 113.688 53.6271C113.677 53.6268 113.657 53.6328 113.631 53.6445C113.605 53.6561 113.574 53.673 113.541 53.693C113.396 53.783 113.233 53.8241 113.052 53.8162C113.024 53.8151 112.969 53.8281 112.888 53.8551L111.968 54.1625C111.872 54.194 111.82 54.2142 111.812 54.2233C111.718 54.3229 111.594 54.2942 111.535 54.3178C107.388 56.01 104.156 58.7713 101.839 62.6015C100.746 64.4097 99.6825 66.2359 98.6498 68.0801C96.8774 71.245 94.9089 73.8238 91.9223 76.0041C88.5636 78.4563 84.8323 79.9109 80.7284 80.368C78.513 80.6146 75.8916 80.591 73.6948 80.1637C70.1636 79.4797 66.306 79.1892 62.8391 79.8563C57.3208 80.9186 52.5433 84.7404 49.8475 89.5975C48.5228 91.9844 47.4049 93.949 46.4939 95.4915C43.6409 100.316 39.3656 103.76 34.0469 105.63C34.0061 105.643 33.9678 105.654 33.9374 105.661C33.9071 105.667 33.8862 105.669 33.8777 105.665C33.774 105.622 33.6968 105.653 33.646 105.758C33.6372 105.776 33.6174 105.789 33.5897 105.796C33.5621 105.803 33.5283 105.803 33.4938 105.797C33.3743 105.773 33.2774 105.798 33.203 105.871C33.1729 105.901 33.1435 105.926 33.1184 105.944C33.0934 105.963 33.074 105.973 33.0626 105.974L32.6821 105.976C32.633 105.976 32.5784 105.997 32.5282 106.037C32.3771 106.155 32.2023 106.187 32.0039 106.133C31.9846 106.127 31.9612 106.13 31.9364 106.139C31.9116 106.149 31.8863 106.166 31.8635 106.189C31.6927 106.357 31.4999 106.298 31.3291 106.335C28.8307 106.856 26.3092 106.99 23.7645 106.739C22.9088 106.655 22.0525 106.569 21.1956 106.481C20.8083 106.442 20.2942 106.263 19.7852 106.314C19.7335 106.318 19.6802 106.305 19.633 106.276C19.3319 106.089 18.7113 106.163 18.3713 106.109C17.8944 106.034 17.6509 105.995 17.6407 105.994C15.1091 105.748 12.6568 105.739 10.1894 106.319ZM158.218 74.6767C157.979 74.4785 157.789 74.5179 157.646 74.7949C157.554 74.9762 157.453 75.2194 157.342 75.5245C153.603 85.8365 149.874 96.1524 146.153 106.472C145.72 107.676 146.595 106.991 146.858 106.771C152.586 102.017 158.263 97.2017 163.889 92.3266C165.894 90.5871 167.345 89.0267 168.675 86.9528C169.046 86.3729 169.013 85.8567 168.578 85.4041C165.389 82.085 162.206 78.7614 159.03 75.4333C158.774 75.1653 158.503 74.9131 158.218 74.6767Z" fill="#7F7C5F"/>
<path d="M10.0896 44.6273C10.0862 39.1133 12.2171 35.2712 16.5161 31.8598C21.2751 28.0858 27.8842 22.9366 36.3434 16.4121C37.5385 15.49 38.458 14.8403 39.1018 14.4632C43.9791 11.604 49.5262 11.4503 54.9921 11.4469C63.7625 11.4401 72.5329 11.4379 81.3034 11.4401C82.1693 11.4418 83.1045 11.5313 83.8976 11.5297C104.063 11.5173 124.229 11.5206 144.394 11.5398C155.552 11.5499 162.905 11.5831 166.454 11.6394C167.295 11.6518 168.217 11.8792 169.221 12.3217C169.247 12.3329 169.27 12.3487 169.289 12.3682C169.308 12.3877 169.322 12.4104 169.331 12.4349C169.474 12.8514 169.351 13.201 168.962 13.4836C160.41 19.7087 151.851 25.9235 143.283 32.1283C140.317 34.2765 138.151 36.8773 137.505 40.5032C137.098 42.782 136.912 44.9871 136.946 47.1184C136.952 47.4359 136.893 47.7072 136.769 47.9324C136.744 47.9784 136.701 48.0158 136.649 48.0388C134.294 49.0825 131.855 49.5362 129.334 49.4C126.057 49.2226 122.852 48.3816 119.566 48.3056C110.126 48.0861 101.878 52.7523 97.444 61.1255C96.2585 63.3666 94.8818 66.1278 93.3344 68.1173C87.9429 75.0482 81.0987 76.401 72.7207 75.234C71.2719 75.0313 70.3231 74.9041 69.8744 74.8523C64.2157 74.1982 59.0018 75.3776 54.2327 78.3904C50.9338 80.4744 48.313 83.2058 46.3704 86.5846C45.1646 88.6805 43.739 91.4839 42.1848 93.8027C37.9568 100.11 30.6882 102.9 23.2554 101.941C19.2846 101.428 15.3932 100.771 11.4257 101.25C9.50617 101.483 9.90529 99.1428 9.94757 98.0231C9.98139 97.0818 9.99887 96.4778 9.99999 96.211C10.0722 79.0164 10.102 61.8219 10.0896 44.6273ZM130.845 39.6943C130.845 39.0542 130.59 38.4404 130.137 37.9878C129.684 37.5352 129.069 37.2809 128.428 37.2809H22.026C21.385 37.2809 20.7703 37.5352 20.3171 37.9878C19.8639 38.4404 19.6093 39.0542 19.6093 39.6943V39.8496C19.6093 40.4897 19.8639 41.1035 20.3171 41.5561C20.7703 42.0087 21.385 42.263 22.026 42.263H128.428C129.069 42.263 129.684 42.0087 130.137 41.5561C130.59 41.1035 130.845 40.4897 130.845 39.8496V39.6943Z" fill="#FFF69B"/>
<path d="M156.101 53.3653C155.776 53.3113 155.603 53.2719 155.581 53.2471C151.57 48.4114 147.565 43.5707 143.566 38.7249C143.163 38.2368 143.087 38.0747 143.642 37.671C151.187 32.188 158.738 26.715 166.297 21.2522C166.713 20.9516 167.337 20.9077 167.075 21.6761C163.467 32.2133 159.849 42.7527 156.221 53.2944C156.213 53.3184 156.196 53.3388 156.174 53.3518C156.152 53.3648 156.126 53.3696 156.101 53.3653Z" fill="#C7BE7E"/>
<path d="M170.259 80.2329C170.155 80.203 170.061 80.1465 169.987 80.0691C166.56 76.4843 163.147 72.9254 159.749 69.3923C159.17 68.7928 159.329 68.4381 159.272 67.7136C158.991 64.1654 158.864 60.678 159.825 57.3223C159.861 57.1962 160.218 56.1288 160.897 54.1202C163.967 45.0276 167.095 35.954 170.28 26.8997C170.299 26.8431 170.334 26.7981 170.376 26.773C170.589 26.6469 170.695 26.7578 170.694 27.1057C170.64 44.7078 170.616 62.3105 170.621 79.9137C170.621 80.1941 170.501 80.3005 170.259 80.2329Z" fill="#C7BE7E"/>
<path d="M128.428 37.2809H22.0258C20.6911 37.2809 19.6091 38.3614 19.6091 39.6943V39.8496C19.6091 41.1825 20.6911 42.263 22.0258 42.263H128.428C129.763 42.263 130.845 41.1825 130.845 39.8496V39.6943C130.845 38.3614 129.763 37.2809 128.428 37.2809Z" fill="#7F7C5F"/>
<path d="M142.263 44.6662C142.438 44.7923 142.612 44.9606 142.786 45.1711C146.589 49.7738 150.416 54.4074 154.267 59.0719C154.381 59.2104 154.443 59.3686 154.453 59.5465C154.635 62.8307 154.599 66.1605 154.347 69.5359C154.311 70.024 154.294 70.507 154.108 70.9714C153.354 72.8527 152.608 74.6986 151.918 76.6374C148.734 85.5736 145.503 94.4929 142.224 103.395C142.164 103.561 142.023 103.676 141.859 103.578C141.839 103.565 141.822 103.546 141.81 103.523C141.799 103.5 141.793 103.472 141.793 103.444C141.854 101.017 141.847 98.5973 141.846 96.1755C141.841 79.0665 141.861 61.957 141.905 44.8469C141.906 44.553 142.026 44.4928 142.263 44.6662Z" fill="#C7BE7E"/>
<path d="M137.246 80.4305C137.261 80.6078 137.197 80.7852 137.197 80.9372C137.198 91.1951 137.197 101.453 137.195 111.711C137.195 112.432 137.018 113.189 136.355 113.454C134.936 114.02 133.195 114.207 131.476 114.207C118.379 114.207 105.282 114.208 92.1845 114.209C91.7126 114.209 91.1613 114.292 90.6472 114.292C81.7042 114.292 72.7613 114.292 63.8184 114.292C63.7084 114.292 63.5596 114.376 63.4615 114.376C47.1169 114.376 30.7722 114.376 14.4275 114.376C13.7934 114.376 13.2116 114.173 12.5639 114.082C9.73791 113.057 9.7785 108.924 9.90027 106.565C10.0435 106.534 10.1399 106.451 10.1895 106.319C12.6569 105.739 15.1091 105.748 17.6408 105.994C17.6509 105.995 17.8945 106.034 18.3714 106.109C18.7113 106.163 19.332 106.089 19.633 106.276C19.6802 106.305 19.7335 106.318 19.7852 106.314C20.2942 106.263 20.8084 106.442 21.1956 106.481C22.0525 106.569 22.9088 106.655 23.7645 106.739C26.3092 106.99 28.8307 106.856 31.3292 106.335C31.5 106.298 31.6928 106.357 31.8636 106.189C31.8864 106.166 31.9116 106.149 31.9364 106.139C31.9612 106.13 31.9846 106.127 32.0039 106.133C32.2024 106.187 32.3771 106.155 32.5282 106.037C32.5784 105.997 32.633 105.976 32.6821 105.976L33.0626 105.974C33.074 105.973 33.0935 105.963 33.1185 105.944C33.1435 105.926 33.1729 105.901 33.203 105.871C33.2774 105.798 33.3744 105.773 33.4939 105.797C33.5283 105.803 33.5621 105.803 33.5898 105.796C33.6174 105.789 33.6373 105.776 33.6461 105.758C33.6968 105.653 33.774 105.622 33.8778 105.665C33.8862 105.669 33.9071 105.667 33.9375 105.661C33.9678 105.654 34.0061 105.643 34.0469 105.63C39.3656 103.76 43.6409 100.316 46.4939 95.4915C47.4049 93.949 48.5228 91.9844 49.8475 89.5975C52.5433 84.7404 57.3209 80.9186 62.8392 79.8563C66.3061 79.1892 70.1636 79.4797 73.6948 80.1637C75.8917 80.591 78.513 80.6146 80.7284 80.368C84.8324 79.9109 88.5636 78.4563 91.9223 76.0041C94.9089 73.8238 96.8775 71.245 98.6498 68.0801C99.6826 66.2359 100.746 64.4097 101.839 62.6015C104.156 58.7713 107.388 56.01 111.535 54.3178C111.594 54.2942 111.718 54.3229 111.812 54.2233C111.82 54.2142 111.872 54.194 111.968 54.1625L112.888 53.8551C112.969 53.8281 113.024 53.8151 113.052 53.8162C113.233 53.8241 113.396 53.783 113.541 53.693C113.574 53.6729 113.605 53.6561 113.631 53.6445C113.657 53.6328 113.677 53.6268 113.688 53.6271C113.83 53.635 113.985 53.6164 114.153 53.5714C114.671 53.4284 115.249 53.3214 115.885 53.2505C119.363 52.8604 122.533 53.4683 125.952 53.9108C129.241 54.3364 132.38 54.2097 135.369 53.5308C136.061 53.3732 136.588 53.2882 136.95 53.2758C136.974 53.2748 136.998 53.2822 137.017 53.2967C137.036 53.3112 137.05 53.3319 137.055 53.3552C137.111 53.595 137.141 53.8804 137.144 54.2114C137.215 62.9506 137.249 71.6903 137.246 80.4305Z" fill="#FEF7BD"/>
<path d="M158.218 74.6767C158.503 74.9131 158.774 75.1653 159.03 75.4333C162.206 78.7614 165.388 82.085 168.578 85.4041C169.013 85.8567 169.045 86.3729 168.674 86.9528C167.345 89.0267 165.894 90.5871 163.888 92.3266C158.262 97.2017 152.586 102.017 146.858 106.771C146.594 106.991 145.72 107.676 146.153 106.472C149.874 96.1524 153.603 85.8365 157.342 75.5245C157.452 75.2193 157.554 74.9762 157.646 74.7949C157.788 74.5179 157.979 74.4785 158.218 74.6767Z" fill="#C7BE7E"/>
<path d="M12.5637 114.082C13.2115 114.173 13.7932 114.376 14.4274 114.376C30.7721 114.376 47.1167 114.376 63.4614 114.376C63.5595 114.376 63.7083 114.292 63.8182 114.292C72.7612 114.292 81.7041 114.292 90.6471 114.292C91.1612 114.292 91.7125 114.209 92.1843 114.209C105.282 114.208 118.379 114.207 131.475 114.207C133.195 114.207 134.936 114.02 136.354 113.454C137.017 113.189 137.195 112.432 137.195 111.711C137.197 101.453 137.198 91.1951 137.197 80.9372C137.197 80.7852 137.261 80.6079 137.246 80.4305C137.895 80.1367 137.966 80.5791 137.968 81.0689C138.016 89.7033 138.026 94.8244 137.998 96.4322C137.934 100.131 138.061 103.449 137.973 106.952C137.936 108.472 137.956 110.86 137.697 112.633C137.543 113.684 136.792 114.097 135.783 114.398C134.077 114.908 132.544 115.163 131.183 115.163C93.5936 115.164 56.0044 115.17 18.4152 115.182C16.5059 115.183 14.8976 115.075 13.1387 114.829C12.6122 114.754 12.4206 114.505 12.5637 114.082Z" fill="#7F7C5F"/>
<path d="M10.1893 106.319C10.1397 106.451 10.0433 106.534 9.90015 106.565C9.90804 106.384 10.0044 106.302 10.1893 106.319Z" fill="#C7BE7E"/>
</svg>
