<?xml version="1.0" encoding="UTF-8" standalone="no"?>
<!DOCTYPE svg PUBLIC "-//W3C//DTD SVG 1.1//EN" "http://www.w3.org/Graphics/SVG/1.1/DTD/svg11.dtd">
<svg xmlns="http://www.w3.org/2000/svg" version="1.1" viewBox="0 0 1088 752">
<g stroke-width="2.00" fill="none" stroke-linecap="butt">
<path stroke="#8c8457" vector-effect="non-scaling-stroke" d="
  M 97.66 188.65
  C 72.24 208.85 59.64 231.60 59.66 264.25
  Q 59.77 416.97 59.13 569.69
  Q 59.12 572.06 58.82 580.42
  C 58.57 587.05 56.21 600.91 67.56 599.53
  C 91.02 596.69 114.03 600.58 137.51 603.62
  C 181.46 609.30 224.44 592.78 249.44 555.43
  C 258.63 541.70 267.06 525.10 274.19 512.69
  Q 291.42 482.68 320.68 464.17
  Q 362.98 437.41 413.17 443.22
  Q 417.15 443.68 430.00 445.48
  C 479.54 452.39 520.01 444.38 551.89 403.34
  C 561.04 391.56 569.18 375.21 576.19 361.94
  C 602.41 312.36 651.18 284.73 707.00 286.03
  C 726.43 286.48 745.38 291.46 764.76 292.51
  Q 787.12 293.72 808.01 284.45
  A 1.56 1.35 -0.8 0 0 808.72 283.82
  Q 809.82 281.82 809.77 279.00
  Q 809.46 260.07 813.07 239.83
  C 816.89 218.36 829.70 202.96 847.24 190.24
  Q 923.23 135.13 999.08 79.84
  Q 1002.53 77.33 1001.26 73.63
  A 1.22 1.08 4.4 0 0 1000.61 72.96
  Q 991.71 69.03 984.25 68.92
  Q 952.77 68.42 853.81 68.33
  Q 674.95 68.16 496.09 68.27
  C 491.40 68.28 485.87 67.75 480.75 67.74
  Q 402.96 67.72 325.17 67.78
  C 292.85 67.80 260.05 68.71 231.21 85.64
  Q 225.50 88.99 214.90 97.18
  Q 139.87 155.13 97.66 188.65"
/>
<path stroke="#706848" vector-effect="non-scaling-stroke" d="
  M 923.03 315.99
  A 0.64 0.63 13.9 0 0 923.74 315.57
  Q 955.92 221.94 987.92 128.35
  C 989.47 123.80 985.78 124.06 983.32 125.84
  Q 916.28 174.36 849.36 223.06
  C 846.08 225.45 846.53 226.41 848.91 229.30
  Q 884.38 272.34 919.96 315.29
  Q 920.15 315.51 923.03 315.99"
/>
<path stroke="#706848" vector-effect="non-scaling-stroke" d="
  M 1006.75 475.08
  Q 1008.89 475.68 1008.89 473.19
  Q 1008.84 316.84 1009.32 160.50
  Q 1009.33 157.41 1007.44 158.53
  A 1.51 1.12 -89.3 0 0 1006.87 159.28
  Q 978.62 239.70 951.39 320.46
  Q 945.37 338.30 945.05 339.42
  C 939.37 359.29 940.12 379.94 941.78 400.95
  C 942.12 405.24 941.18 407.34 944.60 410.89
  Q 974.74 442.27 1005.14 474.11
  A 3.64 3.57 -13.4 0 0 1006.75 475.08"
/>
<path stroke="#706848" vector-effect="non-scaling-stroke" d="
  M 841.21 264.48
  Q 839.10 262.94 839.09 265.55
  Q 838.70 417.52 838.74 569.48
  C 838.75 583.82 838.79 598.15 838.43 612.52
  A 0.95 0.79 -76.7 0 0 838.82 613.31
  C 839.79 613.89 840.62 613.21 840.98 612.23
  Q 870.06 533.16 898.30 453.79
  C 902.38 442.31 906.79 431.38 911.25 420.24
  C 912.35 417.49 912.45 414.63 912.66 411.74
  Q 914.90 381.76 913.29 352.59
  Q 913.20 351.01 912.19 349.78
  Q 878.03 308.35 844.30 267.47
  Q 842.76 265.60 841.21 264.48"
/>
<path stroke="#706848" vector-effect="non-scaling-stroke" d="
  M 60.25 629.54
  Q 58.61 629.39 58.54 631.00"
/>
<path stroke="#8b8568" vector-effect="non-scaling-stroke" d="
  M 58.54 631.00
  C 57.82 644.97 57.58 669.44 74.29 675.51"
/>
<path stroke="#0c0909" vector-effect="non-scaling-stroke" d="
  M 74.29 675.51
  Q 73.02 679.27 77.69 679.93
  C 88.09 681.39 97.60 682.03 108.89 682.02
  Q 442.29 681.92 775.69 681.91
  Q 787.76 681.91 802.89 677.38
  C 808.86 675.60 813.30 673.15 814.21 666.93
  C 815.74 656.43 815.62 642.29 815.84 633.29
  C 816.36 612.55 815.61 592.90 815.99 571.00
  Q 816.24 556.72 815.81 480.03
  C 815.80 477.13 815.38 474.51 811.54 476.25"
/>
<path stroke="#8b8568" vector-effect="non-scaling-stroke" d="
  M 811.54 476.25
  Q 811.57 398.62 810.94 321.00
  Q 810.91 318.06 810.41 315.93
  A 0.61 0.60 -7.4 0 0 809.79 315.46
  Q 806.58 315.57 800.44 316.97
  Q 773.93 323.00 744.76 319.22
  C 724.54 316.60 705.80 313.00 685.23 315.31
  Q 679.59 315.94 674.99 317.21
  Q 673.50 317.61 672.24 317.54
  A 1.24 0.20 -33.2 0 0 671.37 317.93
  Q 670.09 318.73 668.48 318.66
  Q 668.23 318.65 667.51 318.89
  L 662.07 320.71
  Q 661.22 320.99 661.15 321.07
  C 660.59 321.66 659.86 321.49 659.51 321.63
  Q 622.73 336.66 602.18 370.68
  Q 592.48 386.74 583.32 403.12
  C 572.84 421.86 561.20 437.13 543.54 450.04
  Q 513.75 471.82 477.35 475.88
  C 464.25 477.34 448.75 477.20 435.76 474.67
  C 414.88 470.62 392.07 468.90 371.57 472.85
  C 338.94 479.14 310.69 501.77 294.75 530.53
  Q 283.00 551.73 274.92 565.43
  C 258.05 594.00 232.77 614.39 201.32 625.46
  A 1.23 0.18 -20.3 0 1 200.32 625.67
  Q 199.40 625.29 198.95 626.22
  A 0.92 0.51 14.5 0 1 198.05 626.45
  Q 196.99 626.24 196.33 626.89
  A 1.27 0.23 -46.4 0 1 195.50 627.50
  L 193.25 627.51
  A 1.67 1.10 -55.0 0 0 192.34 627.87
  Q 191.00 628.92 189.24 628.44
  A 1.03 0.61 -52.2 0 0 188.41 628.77
  C 187.40 629.77 186.26 629.42 185.25 629.64
  Q 163.09 634.26 140.52 632.03
  Q 132.93 631.28 125.33 630.50
  C 123.04 630.27 120.00 629.21 116.99 629.51
  A 1.57 1.41 55.7 0 1 116.09 629.29
  C 114.31 628.18 110.64 628.62 108.63 628.30
  Q 104.40 627.63 104.31 627.62
  C 89.34 626.16 74.84 626.11 60.25 629.54"
/>
<path stroke="#7f7c5f" vector-effect="non-scaling-stroke" d="
  M 811.54 476.25
  C 811.63 477.30 811.25 478.35 811.25 479.25
  Q 811.26 570.36 811.24 661.47
  C 811.24 665.74 810.19 670.22 806.27 671.79
  C 797.88 675.14 787.59 676.25 777.42 676.25
  Q 661.26 676.25 545.09 676.26
  C 542.30 676.26 539.04 676.75 536.00 676.75
  Q 456.68 676.75 377.36 676.75
  C 376.71 676.75 375.83 677.25 375.25 677.25
  Q 230.28 677.25 85.31 677.25
  C 81.56 677.25 78.12 676.05 74.29 675.51"
/>
<path stroke="#e3db9e" vector-effect="non-scaling-stroke" d="
  M 58.54 631.00
  Q 59.81 630.72 60.25 629.54"
/>
<path stroke="#706848" vector-effect="non-scaling-stroke" d="
  M 935.55 442.18
  Q 933.43 440.42 932.17 442.88
  Q 931.35 444.49 930.37 447.20
  Q 897.21 538.79 864.21 630.45
  C 861.65 637.58 866.82 633.52 868.38 632.22
  Q 919.18 589.99 969.08 546.69
  C 980.94 536.39 989.52 527.15 997.38 514.87
  Q 1000.67 509.72 996.81 505.70
  Q 968.52 476.22 940.35 446.66
  Q 938.08 444.28 935.55 442.18"
/>
<path stroke="#8c8457" vector-effect="non-scaling-stroke" d="
  M 773.69 235.04
  A 14.29 14.29 0.0 0 0 759.40 220.75
  L 130.24 220.75
  A 14.29 14.29 0.0 0 0 115.95 235.04
  L 115.95 235.96
  A 14.29 14.29 0.0 0 0 130.24 250.25
  L 759.40 250.25
  A 14.29 14.29 0.0 0 0 773.69 235.96
  L 773.69 235.04"
/>
</g>
<path fill="#181212" d="
  M 1051.40 492.85
  C 1046.24 523.91 1030.36 551.86 1006.10 572.86
  Q 959.23 613.44 911.84 653.41
  C 893.49 668.89 875.30 684.21 856.97 695.97
  C 828.47 714.25 797.35 722.05 763.72 721.64
  Q 753.19 721.51 753.15 721.51
  Q 389.99 721.47 324.00 721.50
  Q 323.80 721.50 323.66 721.45
  Q 323.18 721.25 323.13 721.25
  Q 203.31 721.25 83.50 721.25
  Q 74.89 721.25 64.09 717.85
  C 38.89 709.92 21.13 689.97 16.78 663.98
  Q 15.77 657.89 15.76 645.34
  Q 15.73 454.67 15.76 264.00
  Q 15.77 250.07 16.36 244.02
  C 21.10 196.06 52.29 168.21 87.78 139.74
  Q 135.97 101.08 185.08 63.60
  C 205.12 48.29 226.11 36.15 250.24 30.49
  C 273.89 24.94 297.61 23.52 321.81 23.50
  Q 651.16 23.23 980.50 23.26
  C 1019.02 23.27 1047.66 45.38 1052.51 84.50
  Q 1054.97 104.35 1054.53 123.07
  Q 1051.88 237.07 1054.23 351.07
  C 1055.06 391.62 1055.08 432.41 1053.20 472.94
  Q 1052.61 485.58 1051.40 492.85
  Z
  M 97.66 188.65
  C 72.24 208.85 59.64 231.60 59.66 264.25
  Q 59.77 416.97 59.13 569.69
  Q 59.12 572.06 58.82 580.42
  C 58.57 587.05 56.21 600.91 67.56 599.53
  C 91.02 596.69 114.03 600.58 137.51 603.62
  C 181.46 609.30 224.44 592.78 249.44 555.43
  C 258.63 541.70 267.06 525.10 274.19 512.69
  Q 291.42 482.68 320.68 464.17
  Q 362.98 437.41 413.17 443.22
  Q 417.15 443.68 430.00 445.48
  C 479.54 452.39 520.01 444.38 551.89 403.34
  C 561.04 391.56 569.18 375.21 576.19 361.94
  C 602.41 312.36 651.18 284.73 707.00 286.03
  C 726.43 286.48 745.38 291.46 764.76 292.51
  Q 787.12 293.72 808.01 284.45
  A 1.56 1.35 -0.8 0 0 808.72 283.82
  Q 809.82 281.82 809.77 279.00
  Q 809.46 260.07 813.07 239.83
  C 816.89 218.36 829.70 202.96 847.24 190.24
  Q 923.23 135.13 999.08 79.84
  Q 1002.53 77.33 1001.26 73.63
  A 1.22 1.08 4.4 0 0 1000.61 72.96
  Q 991.71 69.03 984.25 68.92
  Q 952.77 68.42 853.81 68.33
  Q 674.95 68.16 496.09 68.27
  C 491.40 68.28 485.87 67.75 480.75 67.74
  Q 402.96 67.72 325.17 67.78
  C 292.85 67.80 260.05 68.71 231.21 85.64
  Q 225.50 88.99 214.90 97.18
  Q 139.87 155.13 97.66 188.65
  Z
  M 923.03 315.99
  A 0.64 0.63 13.9 0 0 923.74 315.57
  Q 955.92 221.94 987.92 128.35
  C 989.47 123.80 985.78 124.06 983.32 125.84
  Q 916.28 174.36 849.36 223.06
  C 846.08 225.45 846.53 226.41 848.91 229.30
  Q 884.38 272.34 919.96 315.29
  Q 920.15 315.51 923.03 315.99
  Z
  M 1006.75 475.08
  Q 1008.89 475.68 1008.89 473.19
  Q 1008.84 316.84 1009.32 160.50
  Q 1009.33 157.41 1007.44 158.53
  A 1.51 1.12 -89.3 0 0 1006.87 159.28
  Q 978.62 239.70 951.39 320.46
  Q 945.37 338.30 945.05 339.42
  C 939.37 359.29 940.12 379.94 941.78 400.95
  C 942.12 405.24 941.18 407.34 944.60 410.89
  Q 974.74 442.27 1005.14 474.11
  A 3.64 3.57 -13.4 0 0 1006.75 475.08
  Z
  M 841.21 264.48
  Q 839.10 262.94 839.09 265.55
  Q 838.70 417.52 838.74 569.48
  C 838.75 583.82 838.79 598.15 838.43 612.52
  A 0.95 0.79 -76.7 0 0 838.82 613.31
  C 839.79 613.89 840.62 613.21 840.98 612.23
  Q 870.06 533.16 898.30 453.79
  C 902.38 442.31 906.79 431.38 911.25 420.24
  C 912.35 417.49 912.45 414.63 912.66 411.74
  Q 914.90 381.76 913.29 352.59
  Q 913.20 351.01 912.19 349.78
  Q 878.03 308.35 844.30 267.47
  Q 842.76 265.60 841.21 264.48
  Z
  M 60.25 629.54
  Q 58.61 629.39 58.54 631.00
  C 57.82 644.97 57.58 669.44 74.29 675.51
  Q 73.02 679.27 77.69 679.93
  C 88.09 681.39 97.60 682.03 108.89 682.02
  Q 442.29 681.92 775.69 681.91
  Q 787.76 681.91 802.89 677.38
  C 808.86 675.60 813.30 673.15 814.21 666.93
  C 815.74 656.43 815.62 642.29 815.84 633.29
  C 816.36 612.55 815.61 592.90 815.99 571.00
  Q 816.24 556.72 815.81 480.03
  C 815.80 477.13 815.38 474.51 811.54 476.25
  Q 811.57 398.62 810.94 321.00
  Q 810.91 318.06 810.41 315.93
  A 0.61 0.60 -7.4 0 0 809.79 315.46
  Q 806.58 315.57 800.44 316.97
  Q 773.93 323.00 744.76 319.22
  C 724.54 316.60 705.80 313.00 685.23 315.31
  Q 679.59 315.94 674.99 317.21
  Q 673.50 317.61 672.24 317.54
  A 1.24 0.20 -33.2 0 0 671.37 317.93
  Q 670.09 318.73 668.48 318.66
  Q 668.23 318.65 667.51 318.89
  L 662.07 320.71
  Q 661.22 320.99 661.15 321.07
  C 660.59 321.66 659.86 321.49 659.51 321.63
  Q 622.73 336.66 602.18 370.68
  Q 592.48 386.74 583.32 403.12
  C 572.84 421.86 561.20 437.13 543.54 450.04
  Q 513.75 471.82 477.35 475.88
  C 464.25 477.34 448.75 477.20 435.76 474.67
  C 414.88 470.62 392.07 468.90 371.57 472.85
  C 338.94 479.14 310.69 501.77 294.75 530.53
  Q 283.00 551.73 274.92 565.43
  C 258.05 594.00 232.77 614.39 201.32 625.46
  A 1.23 0.18 -20.3 0 1 200.32 625.67
  Q 199.40 625.29 198.95 626.22
  A 0.92 0.51 14.5 0 1 198.05 626.45
  Q 196.99 626.24 196.33 626.89
  A 1.27 0.23 -46.4 0 1 195.50 627.50
  L 193.25 627.51
  A 1.67 1.10 -55.0 0 0 192.34 627.87
  Q 191.00 628.92 189.24 628.44
  A 1.03 0.61 -52.2 0 0 188.41 628.77
  C 187.40 629.77 186.26 629.42 185.25 629.64
  Q 163.09 634.26 140.52 632.03
  Q 132.93 631.28 125.33 630.50
  C 123.04 630.27 120.00 629.21 116.99 629.51
  A 1.57 1.41 55.7 0 1 116.09 629.29
  C 114.31 628.18 110.64 628.62 108.63 628.30
  Q 104.40 627.63 104.31 627.62
  C 89.34 626.16 74.84 626.11 60.25 629.54
  Z
  M 935.55 442.18
  Q 933.43 440.42 932.17 442.88
  Q 931.35 444.49 930.37 447.20
  Q 897.21 538.79 864.21 630.45
  C 861.65 637.58 866.82 633.52 868.38 632.22
  Q 919.18 589.99 969.08 546.69
  C 980.94 536.39 989.52 527.15 997.38 514.87
  Q 1000.67 509.72 996.81 505.70
  Q 968.52 476.22 940.35 446.66
  Q 938.08 444.28 935.55 442.18
  Z"
/>
<path fill="#fff69b" d="
  M 59.66 264.25
  C 59.64 231.60 72.24 208.85 97.66 188.65
  Q 139.87 155.13 214.90 97.18
  Q 225.50 88.99 231.21 85.64
  C 260.05 68.71 292.85 67.80 325.17 67.78
  Q 402.96 67.72 480.75 67.74
  C 485.87 67.75 491.40 68.28 496.09 68.27
  Q 674.95 68.16 853.81 68.33
  Q 952.77 68.42 984.25 68.92
  Q 991.71 69.03 1000.61 72.96
  A 1.22 1.08 4.4 0 1 1001.26 73.63
  Q 1002.53 77.33 999.08 79.84
  Q 923.23 135.13 847.24 190.24
  C 829.70 202.96 816.89 218.36 813.07 239.83
  Q 809.46 260.07 809.77 279.00
  Q 809.82 281.82 808.72 283.82
  A 1.56 1.35 -0.8 0 1 808.01 284.45
  Q 787.12 293.72 764.76 292.51
  C 745.38 291.46 726.43 286.48 707.00 286.03
  C 651.18 284.73 602.41 312.36 576.19 361.94
  C 569.18 375.21 561.04 391.56 551.89 403.34
  C 520.01 444.38 479.54 452.39 430.00 445.48
  Q 417.15 443.68 413.17 443.22
  Q 362.98 437.41 320.68 464.17
  Q 291.42 482.68 274.19 512.69
  C 267.06 525.10 258.63 541.70 249.44 555.43
  C 224.44 592.78 181.46 609.30 137.51 603.62
  C 114.03 600.58 91.02 596.69 67.56 599.53
  C 56.21 600.91 58.57 587.05 58.82 580.42
  Q 59.12 572.06 59.13 569.69
  Q 59.77 416.97 59.66 264.25
  Z
  M 773.69 235.04
  A 14.29 14.29 0.0 0 0 759.40 220.75
  L 130.24 220.75
  A 14.29 14.29 0.0 0 0 115.95 235.04
  L 115.95 235.96
  A 14.29 14.29 0.0 0 0 130.24 250.25
  L 759.40 250.25
  A 14.29 14.29 0.0 0 0 773.69 235.96
  L 773.69 235.04
  Z"
/>
<path fill="#c7be7e" d="
  M 923.03 315.99
  Q 920.15 315.51 919.96 315.29
  Q 884.38 272.34 848.91 229.30
  C 846.53 226.41 846.08 225.45 849.36 223.06
  Q 916.28 174.36 983.32 125.84
  C 985.78 124.06 989.47 123.80 987.92 128.35
  Q 955.92 221.94 923.74 315.57
  A 0.64 0.63 13.9 0 1 923.03 315.99
  Z"
/>
<path fill="#c7be7e" d="
  M 1006.75 475.08
  A 3.64 3.57 -13.4 0 1 1005.14 474.11
  Q 974.74 442.27 944.60 410.89
  C 941.18 407.34 942.12 405.24 941.78 400.95
  C 940.12 379.94 939.37 359.29 945.05 339.42
  Q 945.37 338.30 951.39 320.46
  Q 978.62 239.70 1006.87 159.28
  A 1.51 1.12 -89.3 0 1 1007.44 158.53
  Q 1009.33 157.41 1009.32 160.50
  Q 1008.84 316.84 1008.89 473.19
  Q 1008.89 475.68 1006.75 475.08
  Z"
/>
<rect fill="#181212" x="115.95" y="220.75" width="657.74" height="29.50" rx="14.29"/>
<path fill="#c7be7e" d="
  M 841.21 264.48
  Q 842.76 265.60 844.30 267.47
  Q 878.03 308.35 912.19 349.78
  Q 913.20 351.01 913.29 352.59
  Q 914.90 381.76 912.66 411.74
  C 912.45 414.63 912.35 417.49 911.25 420.24
  C 906.79 431.38 902.38 442.31 898.30 453.79
  Q 870.06 533.16 840.98 612.23
  C 840.62 613.21 839.79 613.89 838.82 613.31
  A 0.95 0.79 -76.7 0 1 838.43 612.52
  C 838.79 598.15 838.75 583.82 838.74 569.48
  Q 838.70 417.52 839.09 265.55
  Q 839.10 262.94 841.21 264.48
  Z"
/>
<path fill="#fef7bd" d="
  M 811.54 476.25
  C 811.63 477.30 811.25 478.35 811.25 479.25
  Q 811.26 570.36 811.24 661.47
  C 811.24 665.74 810.19 670.22 806.27 671.79
  C 797.88 675.14 787.59 676.25 777.42 676.25
  Q 661.26 676.25 545.09 676.26
  C 542.30 676.26 539.04 676.75 536.00 676.75
  Q 456.68 676.75 377.36 676.75
  C 376.71 676.75 375.83 677.25 375.25 677.25
  Q 230.28 677.25 85.31 677.25
  C 81.56 677.25 78.12 676.05 74.29 675.51
  C 57.58 669.44 57.82 644.97 58.54 631.00
  Q 59.81 630.72 60.25 629.54
  C 74.84 626.11 89.34 626.16 104.31 627.62
  Q 104.40 627.63 108.63 628.30
  C 110.64 628.62 114.31 628.18 116.09 629.29
  A 1.57 1.41 55.7 0 0 116.99 629.51
  C 120.00 629.21 123.04 630.27 125.33 630.50
  Q 132.93 631.28 140.52 632.03
  Q 163.09 634.26 185.25 629.64
  C 186.26 629.42 187.40 629.77 188.41 628.77
  A 1.03 0.61 -52.2 0 1 189.24 628.44
  Q 191.00 628.92 192.34 627.87
  A 1.67 1.10 -55.0 0 1 193.25 627.51
  L 195.50 627.50
  A 1.27 0.23 -46.4 0 0 196.33 626.89
  Q 196.99 626.24 198.05 626.45
  A 0.92 0.51 14.5 0 0 198.95 626.22
  Q 199.40 625.29 200.32 625.67
  A 1.23 0.18 -20.3 0 0 201.32 625.46
  C 232.77 614.39 258.05 594.00 274.92 565.43
  Q 283.00 551.73 294.75 530.53
  C 310.69 501.77 338.94 479.14 371.57 472.85
  C 392.07 468.90 414.88 470.62 435.76 474.67
  C 448.75 477.20 464.25 477.34 477.35 475.88
  Q 513.75 471.82 543.54 450.04
  C 561.20 437.13 572.84 421.86 583.32 403.12
  Q 592.48 386.74 602.18 370.68
  Q 622.73 336.66 659.51 321.63
  C 659.86 321.49 660.59 321.66 661.15 321.07
  Q 661.22 320.99 662.07 320.71
  L 667.51 318.89
  Q 668.23 318.65 668.48 318.66
  Q 670.09 318.73 671.37 317.93
  A 1.24 0.20 -33.2 0 1 672.24 317.54
  Q 673.50 317.61 674.99 317.21
  Q 679.59 315.94 685.23 315.31
  C 705.80 313.00 724.54 316.60 744.76 319.22
  Q 773.93 323.00 800.44 316.97
  Q 806.58 315.57 809.79 315.46
  A 0.61 0.60 -7.4 0 1 810.41 315.93
  Q 810.91 318.06 810.94 321.00
  Q 811.57 398.62 811.54 476.25
  Z"
/>
<path fill="#c7be7e" d="
  M 935.55 442.18
  Q 938.08 444.28 940.35 446.66
  Q 968.52 476.22 996.81 505.70
  Q 1000.67 509.72 997.38 514.87
  C 989.52 527.15 980.94 536.39 969.08 546.69
  Q 919.18 589.99 868.38 632.22
  C 866.82 633.52 861.65 637.58 864.21 630.45
  Q 897.21 538.79 930.37 447.20
  Q 931.35 444.49 932.17 442.88
  Q 933.43 440.42 935.55 442.18
  Z"
/>
<path fill="#000000" d="
  M 74.29 675.51
  C 78.12 676.05 81.56 677.25 85.31 677.25
  Q 230.28 677.25 375.25 677.25
  C 375.83 677.25 376.71 676.75 377.36 676.75
  Q 456.68 676.75 536.00 676.75
  C 539.04 676.75 542.30 676.26 545.09 676.26
  Q 661.26 676.25 777.42 676.25
  C 787.59 676.25 797.88 675.14 806.27 671.79
  C 810.19 670.22 811.24 665.74 811.24 661.47
  Q 811.26 570.36 811.25 479.25
  C 811.25 478.35 811.63 477.30 811.54 476.25
  C 815.38 474.51 815.80 477.13 815.81 480.03
  Q 816.24 556.72 815.99 571.00
  C 815.61 592.90 816.36 612.55 815.84 633.29
  C 815.62 642.29 815.74 656.43 814.21 666.93
  C 813.30 673.15 808.86 675.60 802.89 677.38
  Q 787.76 681.91 775.69 681.91
  Q 442.29 681.92 108.89 682.02
  C 97.60 682.03 88.09 681.39 77.69 679.93
  Q 73.02 679.27 74.29 675.51
  Z"
/>
<path fill="#c7be7e" d="
  M 60.25 629.54
  Q 59.81 630.72 58.54 631.00
  Q 58.61 629.39 60.25 629.54
  Z"
/>
</svg>
